HIERARCHY
ROOT Hips
{
	OFFSET 0.00000 0.00000 0.00000
	CHANNELS 6 Xposition Yposition Zposition Yrotation Zrotation Xrotation 
	JOINT Lumbar
	{
		OFFSET 0 0 0
		CHANNELS 3 Zrotation Xrotation Yrotation
		JOINT Neck
		{
			OFFSET 0.00 0.2701 0.00
			CHANNELS 3 Zrotation Xrotation Yrotation
			End Site
			{
				OFFSET 0.00 0.1379 0.00
			}
		}
		JOINT RightShoulder
		{
			OFFSET 0.0119 0.2289 0.1181
			CHANNELS 3 Zrotation Xrotation Yrotation
			JOINT RightElbow
			{
				OFFSET 0.00 -0.1475 0.00
				CHANNELS 2 Zrotation Yrotation
				JOINT RightWrist
				{
					OFFSET 0.00 -0.1605 0.00
					CHANNELS 2 Zrotation Xrotation
					End Site
					{
						OFFSET 0.0040 -0.1068 0.0006
					}
				}
			}
		}
		JOINT LeftShoulder
		{
			OFFSET 0.0119 0.2289 -0.1181
			CHANNELS 3 Zrotation Xrotation Yrotation
			JOINT LeftElbow
			{
				OFFSET 0.00 -0.1475 0.00
				CHANNELS 2 Zrotation Yrotation
				JOINT LeftWrist
				{
					OFFSET 0.00 -0.1605 0.00
					CHANNELS 2 Zrotation Xrotation
					End Site
					{
						OFFSET 0.0040 -0.1068 -0.0006
					}
				}
			}
		}
	}
	JOINT RightHip
	{
		OFFSET 0.0316 -0.0424 0.0458
		CHANNELS 3 Zrotation Xrotation Yrotation
		JOINT RightKnee
		{
			OFFSET 0.00 -0.2438 0.00
			CHANNELS 1 Zrotation
			JOINT RightAnkle
			{
				OFFSET 0.00 -0.2449 0.00
				CHANNELS 3 Zrotation Xrotation Yrotation
				End Site
				{
					OFFSET 0.1237 -0.0542 0.0051
				}
			}
		}
	}
	JOINT LeftHip
	{
		OFFSET 0.0316 -0.0424 -0.0458
		CHANNELS 3 Zrotation Xrotation Yrotation
		JOINT LeftKnee
		{
			OFFSET 0.00 -0.2438 0.00
			CHANNELS 1 Zrotation
			JOINT LeftAnkle
			{
				OFFSET 0.00 -0.2449 0.00
				CHANNELS 3 Zrotation Xrotation Yrotation
				End Site
				{
					OFFSET 0.1237 -0.0542 -0.0051
				}
			}
		}
	}
}
MOTION
Frames: 14
Frame Time: 0.02
6e-05 7e-05 0.00051 -175.99574 -43.03915 0.30578 48.91726 2.6514 -5.67719 7.83729 -1.95789 -0.91476 -17.1836 -7.31723 -19.30421 33.75913 142.51525 18.35016 10.80583 -21.72437 -0.78518 31.54042 45.53595 -178.04129 38.58206 -15.41723 44.79791 -1.71217 -7.19148 -19.56643 -6.02274 -2.71419 -3.49238 48.96974 4.02134 2.79183 -24.82175 -6.23338 1.73398 3.0632
7e-05 6e-05 0.00076 -176.07916 -42.99012 0.26985 48.95895 2.65924 -5.67621 7.69758 -1.9096 -0.91624 -17.37914 -7.61877 -18.34483 33.51872 137.23289 16.92169 9.87319 -22.14873 0.64107 27.99939 45.46425 -170.49156 35.99719 -14.09548 44.74094 -1.73879 -7.34953 -19.54896 -6.02138 -2.69096 -3.48328 48.89727 4.09662 3.17948 -24.81946 -6.24284 1.69785 3.04616
7e-05 5e-05 0.001 -176.1625 -42.94118 0.23398 49.0005 2.6671 -5.67539 7.55849 -1.86157 -0.91771 -17.5733 -7.91965 -17.38818 33.27856 131.96709 15.49781 8.94349 -22.5708 2.06363 24.46752 45.39242 -162.97193 33.42367 -12.77864 44.68415 -1.76537 -7.50749 -19.53155 -6.02003 -2.66776 -3.47418 48.82501 4.17169 3.56592 -24.81722 -6.25228 1.66184 3.02918
8e-05 4e-05 0.00124 -176.24569 -42.89229 0.19815 49.04206 2.67492 -5.67444 7.41924 -1.81343 -0.91919 -17.76814 -8.2203 -16.43174 33.03879 126.70104 14.07377 8.01374 -22.99377 3.48559 20.93711 45.32089 -155.44699 30.84749 -11.46116 44.62735 -1.79191 -7.66513 -19.51414 -6.01867 -2.6446 -3.4651 48.75277 4.24674 3.95235 -24.81495 -6.26171 1.62582 3.01219
9e-05 3e-05 0.00149 -176.32891 -42.84332 0.16226 49.08376 2.6827 -5.67328 7.27931 -1.76502 -0.92066 -17.96458 -8.52153 -15.4726 32.79901 121.41834 12.64509 7.081 -23.4192 4.911 17.3982 45.24961 -147.88819 28.25818 -10.13827 44.5704 -1.81848 -7.82265 -19.49666 -6.01732 -2.62142 -3.45603 48.68032 4.32198 4.34003 -24.81262 -6.27116 1.58969 2.99515
9e-05 3e-05 0.00173 -176.41251 -42.79449 0.12644 49.125 2.69072 -5.67314 7.14202 -1.71781 -0.92214 -18.15389 -8.82166 -14.5212 32.5581 116.18835 11.23136 6.15774 -23.83405 6.32749 13.88137 45.17662 -140.4506 25.7177 -8.83412 44.51393 -1.84508 -7.9815 -19.47941 -6.01596 -2.59818 -3.4469 48.60846 4.39671 4.72385 -24.81056 -6.28054 1.55394 2.9783
0.0001 2e-05 0.00198 -176.49521 -42.74541 0.09052 49.16711 2.69827 -5.67095 6.99953 -1.66816 -0.92361 -18.35753 -9.12362 -13.55548 32.3196 110.85836 9.7892 5.2165 -24.27023 7.76025 10.32409 45.10718 -132.78103 23.08329 -7.49425 44.45653 -1.8716 -8.13765 -19.46171 -6.0146 -2.57507 -3.43787 48.5355 4.47236 5.11491 -24.80797 -6.29007 1.51745 2.96108
0.00011 1e-05 0.00222 -176.57879 -42.69657 0.05472 49.20843 2.70623 -5.67065 6.86188 -1.62091 -0.92508 -18.54762 -9.42399 -12.60261 32.07911 105.62004 8.37308 4.29173 -24.68587 9.17822 6.80393 45.03443 -125.3186 20.53273 -6.18632 44.40004 -1.89814 -8.296 -19.44442 -6.01325 -2.55187 -3.42876 48.46356 4.5472 5.4995 -24.80585 -6.29946 1.48164 2.9442
0.00012 0 0.00246 -176.66332 -42.64795 0.01892 49.24877 2.71476 -5.67272 6.72998 -1.57597 -0.92657 -18.72238 -9.72221 -11.66642 31.83508 100.4938 6.98895 3.38714 -25.07984 10.57801 3.32807 44.95769 -118.13436 18.09517 -4.92099 44.34444 -1.92493 -8.45834 -19.42765 -6.0119 -2.52845 -3.4195 48.39278 4.62093 5.87551 -24.80437 -6.30869 1.44668 2.92774
0.00011 -1e-05 0.00274 -176.742 -42.59784 -0.01732 49.29468 2.72022 -5.66134 6.56451 -1.51586 -0.92799 -18.98903 -10.0322 -10.63714 31.60805 94.72259 5.42121 2.36658 -25.6088 12.08214 -0.40603 44.90406 -109.42457 15.03903 -3.42124 44.28304 -1.95096 -8.60165 -19.40796 -6.0105 -2.50597 -3.41097 48.3151 4.7007 6.29888 -24.79944 -6.31884 1.4069 2.90888
0.00014 -1e-05 0.00292 -176.83327 -42.55105 -0.05233 49.32889 2.73203 -5.67817 6.47014 -1.48895 -0.92956 -19.05956 -10.31767 -9.80252 31.34738 90.31257 4.24064 1.59064 -25.84646 13.36609 -3.59268 44.8016 -103.88528 13.26763 -2.40923 44.23429 -1.97817 -8.78254 -19.39436 -6.00923 -2.48169 -3.40099 48.25213 4.76794 6.62357 -24.8016 -6.32708 1.37724 2.89506
0.00026 0 0.00288 -176.95755 -42.51189 -0.08646 49.33042 2.76232 -5.77435 6.57039 -1.54455 -0.93155 -18.60512 -10.53264 -9.5212 30.97532 89.6699 4.13425 1.49287 -25.32951 14.03977 -5.28244 44.56432 -107.53474 15.22536 -2.80654 44.21716 -2.01246 -9.08996 -19.39813 -6.00808 -2.45087 -3.38606 48.22864 4.79884 6.66433 -24.82512 -6.32976 1.37607 2.89546
0.00042 2e-05 0.00273 -177.09474 -42.47638 -0.11884 49.32035 2.79876 -5.89826 6.74205 -1.63514 -0.9337 -17.95151 -10.72343 -9.43178 30.57331 90.38796 4.41437 1.63945 -24.51143 14.49269 -6.41953 44.27811 -114.28213 18.43627 -3.68147 44.21332 -2.04738 -9.4316 -19.40785 -6.0071 -2.41847 -3.36981 48.22014 4.81751 6.60822 -24.85542 -6.33058 1.38495 2.90084
0.00057 4e-05 0.00263 -177.22708 -42.44009 -0.15044 49.31594 2.83173 -6.0085 6.88143 -1.71528 -0.93579 -17.38018 -10.9276 -9.24203 30.19707 90.46245 4.51001 1.66972 -23.80236 15.05167 -7.80867 44.01487 -119.28664 20.93956 -4.29024 44.20535 -2.07934 -9.74124 -19.41443 -6.00618 -2.38797 -3.35486 48.20528 4.84313 6.60525 -24.88142 -6.33245 1.38874 2.90365
